<mxfile host="app.diagrams.net" modified="2023-03-02T19:04:00.648Z" agent="5.0 (Windows NT 10.0; Win64; x64) AppleWebKit/537.36 (KHTML, like Gecko) Chrome/110.0.0.0 Safari/537.36" etag="3yVLLpjY73bdbmSoOHlJ" version="20.8.23" type="github">
  <diagram name="Page-1" id="IN7-F6tngdIHSido3vbk">
    <mxGraphModel dx="2312" dy="2685" grid="1" gridSize="10" guides="1" tooltips="1" connect="1" arrows="1" fold="1" page="0" pageScale="1" pageWidth="827" pageHeight="1169" background="#C9FFED" math="0" shadow="1">
      <root>
        <mxCell id="0" />
        <mxCell id="1" parent="0" />
        <mxCell id="2nAWejpYuo-VlykHQfm8-5" style="edgeStyle=none;curved=1;rounded=0;orthogonalLoop=1;jettySize=auto;html=1;fontSize=12;startSize=8;endSize=8;" edge="1" parent="1" source="2nAWejpYuo-VlykHQfm8-1" target="2nAWejpYuo-VlykHQfm8-3">
          <mxGeometry relative="1" as="geometry" />
        </mxCell>
        <mxCell id="2nAWejpYuo-VlykHQfm8-1" value="when user&lt;br&gt;click" style="rounded=0;whiteSpace=wrap;html=1;fontSize=16;" vertex="1" parent="1">
          <mxGeometry x="86" y="-1221" width="120" height="60" as="geometry" />
        </mxCell>
        <mxCell id="2nAWejpYuo-VlykHQfm8-2" value="show the user have to enter his name" style="rounded=0;whiteSpace=wrap;html=1;fontSize=16;" vertex="1" parent="1">
          <mxGeometry x="-170" y="-1118" width="120" height="60" as="geometry" />
        </mxCell>
        <mxCell id="2nAWejpYuo-VlykHQfm8-6" value="no" style="edgeStyle=none;curved=1;rounded=0;orthogonalLoop=1;jettySize=auto;html=1;entryX=1;entryY=0.5;entryDx=0;entryDy=0;fontSize=12;startSize=8;endSize=8;" edge="1" parent="1" source="2nAWejpYuo-VlykHQfm8-3" target="2nAWejpYuo-VlykHQfm8-2">
          <mxGeometry relative="1" as="geometry" />
        </mxCell>
        <mxCell id="2nAWejpYuo-VlykHQfm8-7" value="yes" style="edgeStyle=none;curved=1;rounded=0;orthogonalLoop=1;jettySize=auto;html=1;entryX=0;entryY=0.5;entryDx=0;entryDy=0;fontSize=12;startSize=8;endSize=8;strokeWidth=1;" edge="1" parent="1" source="2nAWejpYuo-VlykHQfm8-3" target="2nAWejpYuo-VlykHQfm8-4">
          <mxGeometry relative="1" as="geometry" />
        </mxCell>
        <mxCell id="2nAWejpYuo-VlykHQfm8-3" value="He enter his name" style="rounded=0;whiteSpace=wrap;html=1;fontSize=16;" vertex="1" parent="1">
          <mxGeometry x="86" y="-1118" width="120" height="60" as="geometry" />
        </mxCell>
        <mxCell id="2nAWejpYuo-VlykHQfm8-8" style="edgeStyle=none;curved=1;rounded=0;orthogonalLoop=1;jettySize=auto;html=1;fontSize=12;startSize=8;endSize=8;" edge="1" parent="1" source="2nAWejpYuo-VlykHQfm8-4" target="2nAWejpYuo-VlykHQfm8-9">
          <mxGeometry relative="1" as="geometry">
            <mxPoint x="360" y="-987" as="targetPoint" />
          </mxGeometry>
        </mxCell>
        <mxCell id="2nAWejpYuo-VlykHQfm8-4" value="calculate the cost of the plate of the user" style="rounded=0;whiteSpace=wrap;html=1;fontSize=16;" vertex="1" parent="1">
          <mxGeometry x="300" y="-1118" width="120" height="60" as="geometry" />
        </mxCell>
        <mxCell id="2nAWejpYuo-VlykHQfm8-10" style="edgeStyle=none;curved=1;rounded=0;orthogonalLoop=1;jettySize=auto;html=1;fontSize=12;startSize=8;endSize=8;" edge="1" parent="1" source="2nAWejpYuo-VlykHQfm8-9">
          <mxGeometry relative="1" as="geometry">
            <mxPoint x="360" y="-921" as="targetPoint" />
          </mxGeometry>
        </mxCell>
        <mxCell id="2nAWejpYuo-VlykHQfm8-9" value="price=length of name * 5" style="rounded=0;whiteSpace=wrap;html=1;fontSize=16;" vertex="1" parent="1">
          <mxGeometry x="300" y="-1017" width="120" height="60" as="geometry" />
        </mxCell>
        <mxCell id="2nAWejpYuo-VlykHQfm8-12" value="Show the result" style="rounded=0;whiteSpace=wrap;html=1;fontSize=16;" vertex="1" parent="1">
          <mxGeometry x="300" y="-920" width="120" height="60" as="geometry" />
        </mxCell>
        <mxCell id="2nAWejpYuo-VlykHQfm8-14" style="edgeStyle=none;curved=1;rounded=0;orthogonalLoop=1;jettySize=auto;html=1;entryX=0.5;entryY=0;entryDx=0;entryDy=0;fontSize=12;startSize=8;endSize=8;" edge="1" parent="1" source="2nAWejpYuo-VlykHQfm8-13" target="2nAWejpYuo-VlykHQfm8-1">
          <mxGeometry relative="1" as="geometry" />
        </mxCell>
        <mxCell id="2nAWejpYuo-VlykHQfm8-13" value="calculate the cost of the place&lt;br&gt;based on the length of the plaque" style="rounded=0;whiteSpace=wrap;html=1;fontSize=16;fillColor=#fff2cc;strokeColor=#d6b656;" vertex="1" parent="1">
          <mxGeometry x="36.5" y="-1370" width="219" height="100" as="geometry" />
        </mxCell>
      </root>
    </mxGraphModel>
  </diagram>
</mxfile>
